<svg width="24" height="24" viewBox="0 0 24 24" fill="none" xmlns="http://www.w3.org/2000/svg">
<rect x="3.7" y="4.7" width="16.6" height="14.6" rx="1.3" stroke="white" stroke-width="1.4"/>
<path d="M7.33639 13.3375L3.37058 16.5498C3.13617 16.7397 3 17.0252 3 17.3269V19C3 19.5523 3.44772 20 4 20H12H20C20.5523 20 21 19.5523 21 19V16.7919C21 16.5399 20.9049 16.2973 20.7338 16.1125L16.6699 11.7235C16.2984 11.3223 15.6736 11.2938 15.2671 11.6596L11.669 14.8979C11.2887 15.2402 10.7113 15.2402 10.331 14.8979L8.63477 13.3713C8.26918 13.0423 7.71859 13.0279 7.33639 13.3375Z" fill="white"/>
<circle cx="10" cy="9" r="1" stroke="white" stroke-width="2" stroke-linecap="round"/>
</svg>
